<svg version="1" xmlns="http://www.w3.org/2000/svg" width="392" height="392" viewBox="0 0 294.000000 294.000000"><path d="M0 147v147h294V0H0v147zm52-5c0 106.3 0 107-2 107s-2-.7-2-107 0-107 2-107 2 .7 2 107zm155-47v20H58V75h149v20zm-40 51v20H58v-40h109v20zm80 50v20H58v-40h189v20z"/><path d="M62 81.5V84h141v-5H62v2.5zM62 90.5V93h141v-5H62v2.5zM62 99.5v2.5h141v-5H62v2.5zM62 108.5v2.5h141v-5H62v2.5zM62 134.5c0 2.5.2 4.5.4 4.5s2-2 4-4.5l3.7-4.5H62v4.5zM68.6 138.5c-5.1 6.5-6.7 9.1-6.4 11.1.3 2.4 1 1.9 8.3-6.7 11.9-14 11.2-12.9 7.8-12.9-2.5 0-4 1.3-9.7 8.5zM74.5 144.6c-6.9 8-12.5 15.2-12.5 16 0 .9 1 1.4 2.8 1.4 2.4 0 4.5-2.1 14.8-14.6C94.3 129.2 93.9 130 90.1 130c-2.6 0-4.6 1.8-15.6 14.6zM90.4 140.7c-4.8 6-10.8 13.2-13.2 16l-4.4 5.3h3.6c3.4 0 4-.5 15.6-16 10.8-14.3 11.8-16 9.6-16-1.9 0-4.4 2.4-11.2 10.7zM97.8 145.4c-6.5 8.5-11.8 15.7-11.8 16 0 .3 1.2.6 2.8.6 2.3 0 4.3-2.1 14.5-15.4 6.4-8.5 11.7-15.7 11.7-16 0-.3-1.2-.6-2.7-.6-2.4 0-4.4 2.1-14.5 15.4zM109 146l-12 16h3.7c3.6-.1 4.1-.5 10.3-9.3 3.6-5 8.7-12.2 11.3-15.9l4.8-6.8h-3c-2.8 0-4.2 1.5-15.1 16zM121.5 145.2c-6.1 8.4-11.2 15.6-11.4 16.1-.2.4 1.4.7 3.5.5 3.7-.3 4.2-.8 14.6-15.3 5.8-8.3 10.7-15.3 10.7-15.8.1-.4-1.4-.7-3.2-.7-3 0-3.9.9-14.2 15.2zM143.8 131.7c-2.2 2.6-20.8 29.3-20.8 29.9 0 .3 1.4.4 3.1.2 2.7-.3 4.4-2.1 14.5-16.1L152 130h-3.4c-1.9 0-3.9.7-4.8 1.7zM153.7 134.7c-1.9 2.7-7.1 9.9-11.6 16L134 162h8.5l9.6-14.8c12.3-18.7 11.6-17.2 8-17.2-2.4 0-3.6.9-6.4 4.7zM155.5 149.7c-3.8 5.8-7.1 11-7.3 11.4-.2.5 1.2.9 3.1.9 3.3 0 3.7-.3 7.6-8 3.1-5.8 4.1-9 3.9-11.5-.3-3.3-.4-3.2-7.3 7.2zM161.2 158.5c-1.5 3.3-1.5 3.5.3 3.5 1 0 1.5-1 1.5-3 0-3.7-.3-3.7-1.8-.5zM62 196v16h181v-32H62v16z"/></svg>